<?xml version="1.0" encoding="UTF-8" standalone="no"?><!DOCTYPE svg PUBLIC "-//W3C//DTD SVG 1.1//EN" "http://www.w3.org/Graphics/SVG/1.1/DTD/svg11.dtd"><!-- Generated by graphviz version 2.40.1 (20161225.0304)
 --><!-- Title: G Pages: 1 --><svg xmlns="http://www.w3.org/2000/svg" xmlns:xlink="http://www.w3.org/1999/xlink" width="1048pt" height="964pt" viewBox="0.00 0.00 1047.86 964.00">
<g id="graph0" class="graph" transform="scale(1 1) rotate(0) translate(4 960)">
<title>G</title>
<polygon fill="#ffffff" stroke="transparent" points="-4,4 -4,-960 1043.8556,-960 1043.8556,4 -4,4"/>
<!-- Q1 -->
<g id="node1" class="node">
<title>Q1</title>
<polygon fill="none" stroke="#000000" points="319.485,-354.9076 283.485,-354.9076 283.485,-318.9076 319.485,-318.9076 319.485,-354.9076"/>
<text text-anchor="middle" x="301.485" y="-332.7076" font-family="Times,serif" font-size="14.00" fill="#000000">Q1</text>
</g>
<!-- Q2 -->
<g id="node2" class="node">
<title>Q2</title>
<ellipse fill="none" stroke="#000000" cx="286.6469" cy="-186.3996" rx="27" ry="18"/>
<text text-anchor="middle" x="286.6469" y="-182.1996" font-family="Times,serif" font-size="14.00" fill="#000000">Q2</text>
</g>
<!-- Q1&#45;&gt;Q2 -->
<g id="edge2" class="edge">
<title>Q1-&gt;Q2</title>
<path fill="none" stroke="#000000" d="M299.6952,-318.7529C297.144,-292.8756 292.4385,-245.1463 289.4301,-214.6306"/>
<polygon fill="#000000" stroke="#000000" points="292.9074,-214.2271 288.4431,-204.6188 285.9412,-214.9139 292.9074,-214.2271"/>
<text text-anchor="middle" x="292.6173" y="-270.8917" font-family="Times,serif" font-size="14.00" fill="#000000">/</text>
</g>
<!-- Q4 -->
<g id="node4" class="node">
<title>Q4</title>
<ellipse fill="none" stroke="#000000" cx="195.971" cy="-217.6654" rx="27" ry="18"/>
<text text-anchor="middle" x="195.971" y="-213.4654" font-family="Times,serif" font-size="14.00" fill="#000000">Q4</text>
</g>
<!-- Q1&#45;&gt;Q4 -->
<g id="edge5" class="edge">
<title>Q1-&gt;Q4</title>
<path fill="none" stroke="#000000" d="M285.4597,-318.7973C266.9975,-297.933 236.621,-263.6044 216.4572,-240.817"/>
<polygon fill="#000000" stroke="#000000" points="219.0351,-238.4488 209.7871,-233.2791 213.7928,-243.0876 219.0351,-238.4488"/>
<text text-anchor="middle" x="247.4584" y="-284.0072" font-family="Times,serif" font-size="14.00" fill="#000000">*</text>
</g>
<!-- Q2&#45;&gt;Q2 -->
<g id="edge3" class="edge">
<title>Q2-&gt;Q2</title>
<path fill="none" stroke="#000000" d="M312.0904,-193.0903C322.6747,-193.5517 331.6469,-191.3215 331.6469,-186.3996 331.6469,-183.1696 327.7829,-181.0988 322.135,-180.1872"/>
<polygon fill="#000000" stroke="#000000" points="322.2456,-176.6886 312.0904,-179.7089 321.9126,-183.6807 322.2456,-176.6886"/>
<text text-anchor="middle" x="348.3615" y="-182.1996" font-family="Times,serif" font-size="14.00" fill="#000000">znaky</text>
</g>
<!-- Q3 -->
<g id="node3" class="node">
<title>Q3</title>
<polygon fill="none" stroke="#000000" points="293.9851,-89.457 257.9851,-89.457 257.9851,-53.457 293.9851,-53.457 293.9851,-89.457"/>
<text text-anchor="middle" x="275.9851" y="-67.257" font-family="Times,serif" font-size="14.00" fill="#000000">Q3</text>
</g>
<!-- Q2&#45;&gt;Q3 -->
<g id="edge4" class="edge">
<title>Q2-&gt;Q3</title>
<path fill="none" stroke="#000000" d="M284.9575,-168.1866C283.2496,-149.7746 280.5866,-121.0652 278.6048,-99.6998"/>
<polygon fill="#000000" stroke="#000000" points="282.0753,-99.2188 277.6666,-89.5848 275.1052,-99.8654 282.0753,-99.2188"/>
<text text-anchor="middle" x="273.2286" y="-138.1432" font-family="Times,serif" font-size="14.00" fill="#000000">eol</text>
</g>
<!-- Q4&#45;&gt;Q4 -->
<g id="edge6" class="edge">
<title>Q4-&gt;Q4</title>
<path fill="none" stroke="#000000" d="M221.4145,-224.3561C231.9988,-224.8175 240.971,-222.5873 240.971,-217.6654 240.971,-214.4354 237.107,-212.3647 231.4591,-211.4531"/>
<polygon fill="#000000" stroke="#000000" points="231.5697,-207.9545 221.4145,-210.9747 231.2367,-214.9465 231.5697,-207.9545"/>
<text text-anchor="middle" x="257.6856" y="-213.4654" font-family="Times,serif" font-size="14.00" fill="#000000">znaky</text>
</g>
<!-- Q5 -->
<g id="node5" class="node">
<title>Q5</title>
<ellipse fill="none" stroke="#000000" cx="106.3479" cy="-117.4562" rx="27" ry="18"/>
<text text-anchor="middle" x="106.3479" y="-113.2562" font-family="Times,serif" font-size="14.00" fill="#000000">Q5</text>
</g>
<!-- Q4&#45;&gt;Q5 -->
<g id="edge7" class="edge">
<title>Q4-&gt;Q5</title>
<path fill="none" stroke="#000000" d="M187.1206,-200.5019C174.4719,-183.1872 151.1987,-156.6336 132.8057,-138.1773"/>
<polygon fill="#000000" stroke="#000000" points="134.8663,-135.2974 125.267,-130.8137 129.975,-140.305 134.8663,-135.2974"/>
<text text-anchor="middle" x="156.4632" y="-173.5396" font-family="Times,serif" font-size="14.00" fill="#000000">*</text>
</g>
<!-- Q5&#45;&gt;Q4 -->
<g id="edge9" class="edge">
<title>Q5-&gt;Q4</title>
<path fill="none" stroke="#000000" d="M115.1983,-134.6197C127.847,-151.9344 151.1202,-178.488 169.5132,-196.9444"/>
<polygon fill="#000000" stroke="#000000" points="167.4526,-199.8242 177.0519,-204.308 172.3439,-194.8166 167.4526,-199.8242"/>
<text text-anchor="middle" x="125.6411" y="-169.982" font-family="Times,serif" font-size="14.00" fill="#000000">znaky</text>
</g>
<!-- Q6 -->
<g id="node6" class="node">
<title>Q6</title>
<polygon fill="none" stroke="#000000" points="36.0954,-35.5862 .0954,-35.5862 .0954,.4138 36.0954,.4138 36.0954,-35.5862"/>
<text text-anchor="middle" x="18.0954" y="-13.3862" font-family="Times,serif" font-size="14.00" fill="#000000">Q6</text>
</g>
<!-- Q5&#45;&gt;Q6 -->
<g id="edge8" class="edge">
<title>Q5-&gt;Q6</title>
<path fill="none" stroke="#000000" d="M92.5584,-101.8515C78.7299,-86.2026 57.1972,-61.8353 40.8369,-43.3215"/>
<polygon fill="#000000" stroke="#000000" points="43.4241,-40.9637 34.1796,-35.7878 38.1787,-45.5989 43.4241,-40.9637"/>
<text text-anchor="middle" x="64.7524" y="-76.7865" font-family="Times,serif" font-size="14.00" fill="#000000">/</text>
</g>
<!-- Q7 -->
<g id="node7" class="node">
<title>Q7</title>
<polygon fill="none" stroke="#000000" points="331.8954,-634.562 295.8954,-634.562 295.8954,-598.562 331.8954,-598.562 331.8954,-634.562"/>
<text text-anchor="middle" x="313.8954" y="-612.362" font-family="Times,serif" font-size="14.00" fill="#000000">Q7</text>
</g>
<!-- Q8 -->
<g id="node8" class="node">
<title>Q8</title>
<polygon fill="none" stroke="#000000" points="473.0242,-405.5818 437.0242,-405.5818 437.0242,-369.5818 473.0242,-369.5818 473.0242,-405.5818"/>
<text text-anchor="middle" x="455.0242" y="-383.3818" font-family="Times,serif" font-size="14.00" fill="#000000">Q8</text>
</g>
<!-- Q9 -->
<g id="node9" class="node">
<title>Q9</title>
<polygon fill="none" stroke="#000000" points="507.9679,-450.71 471.9679,-450.71 471.9679,-414.71 507.9679,-414.71 507.9679,-450.71"/>
<text text-anchor="middle" x="489.9679" y="-428.51" font-family="Times,serif" font-size="14.00" fill="#000000">Q9</text>
</g>
<!-- Q10 -->
<g id="node10" class="node">
<title>Q10</title>
<polygon fill="none" stroke="#000000" points="538.7532,-517.4309 498.5397,-517.4309 498.5397,-477.2174 538.7532,-477.2174 538.7532,-517.4309"/>
<text text-anchor="middle" x="518.6465" y="-493.1241" font-family="Times,serif" font-size="14.00" fill="#000000">Q10</text>
</g>
<!-- Q11 -->
<g id="node11" class="node">
<title>Q11</title>
<polygon fill="none" stroke="#000000" points="533.0955,-571.3458 492.8821,-571.3458 492.8821,-531.1323 533.0955,-531.1323 533.0955,-571.3458"/>
<text text-anchor="middle" x="512.9888" y="-547.039" font-family="Times,serif" font-size="14.00" fill="#000000">Q11</text>
</g>
<!-- Q12 -->
<g id="node12" class="node">
<title>Q12</title>
<polygon fill="none" stroke="#000000" points="290.729,-505.5372 250.5155,-505.5372 250.5155,-465.3237 290.729,-465.3237 290.729,-505.5372"/>
<text text-anchor="middle" x="270.6222" y="-481.2304" font-family="Times,serif" font-size="14.00" fill="#000000">Q12</text>
</g>
<!-- Q13 -->
<g id="node13" class="node">
<title>Q13</title>
<polygon fill="none" stroke="#000000" points="399.0058,-630.5097 358.7923,-630.5097 358.7923,-590.2962 399.0058,-590.2962 399.0058,-630.5097"/>
<text text-anchor="middle" x="378.8991" y="-606.2029" font-family="Times,serif" font-size="14.00" fill="#000000">Q13</text>
</g>
<!-- Q14 -->
<g id="node14" class="node">
<title>Q14</title>
<polygon fill="none" stroke="#000000" points="400.46,-385.1561 360.2466,-385.1561 360.2466,-344.9426 400.46,-344.9426 400.46,-385.1561"/>
<text text-anchor="middle" x="380.3533" y="-360.8493" font-family="Times,serif" font-size="14.00" fill="#000000">Q14</text>
</g>
<!-- Q15 -->
<g id="node15" class="node">
<title>Q15</title>
<polygon fill="none" stroke="#000000" points="301.2288,-570.3102 261.0153,-570.3102 261.0153,-530.0967 301.2288,-530.0967 301.2288,-570.3102"/>
<text text-anchor="middle" x="281.122" y="-546.0034" font-family="Times,serif" font-size="14.00" fill="#000000">Q15</text>
</g>
<!-- Q16 -->
<g id="node16" class="node">
<title>Q16</title>
<polygon fill="none" stroke="#000000" points="326.7386,-418.7222 286.5251,-418.7222 286.5251,-378.5087 326.7386,-378.5087 326.7386,-418.7222"/>
<text text-anchor="middle" x="306.6318" y="-394.4154" font-family="Times,serif" font-size="14.00" fill="#000000">Q16</text>
</g>
<!-- Q17 -->
<g id="node17" class="node">
<title>Q17</title>
<polygon fill="none" stroke="#000000" points="484.481,-628.7211 444.2675,-628.7211 444.2675,-588.5077 484.481,-588.5077 484.481,-628.7211"/>
<text text-anchor="middle" x="464.3742" y="-604.4144" font-family="Times,serif" font-size="14.00" fill="#000000">Q17</text>
</g>
<!-- Q18 -->
<g id="node18" class="node">
<title>Q18</title>
<polygon fill="none" stroke="#000000" points="230.8392,-537.9906 190.6258,-537.9906 190.6258,-497.7771 230.8392,-497.7771 230.8392,-537.9906"/>
<text text-anchor="middle" x="210.7325" y="-513.6838" font-family="Times,serif" font-size="14.00" fill="#000000">Q18</text>
</g>
<!-- Q19 -->
<g id="node19" class="node">
<title>Q19</title>
<polygon fill="none" stroke="#000000" points="112.9456,-555.9674 72.7321,-555.9674 72.7321,-515.7539 112.9456,-515.7539 112.9456,-555.9674"/>
<text text-anchor="middle" x="92.8389" y="-531.6606" font-family="Times,serif" font-size="14.00" fill="#000000">Q19</text>
</g>
<!-- Q18&#45;&gt;Q19 -->
<g id="edge22" class="edge">
<title>Q18-&gt;Q19</title>
<path fill="none" stroke="#000000" d="M190.4659,-520.9741C171.993,-523.7909 144.4462,-527.9914 123.3193,-531.2129"/>
<polygon fill="#000000" stroke="#000000" points="122.5937,-527.783 113.2356,-532.7505 123.6489,-534.703 122.5937,-527.783"/>
<text text-anchor="middle" x="152.9453" y="-530.2935" font-family="Times,serif" font-size="14.00" fill="#000000">=</text>
</g>
<!-- Q20 -->
<g id="node20" class="node">
<title>Q20</title>
<polygon fill="none" stroke="#000000" points="251.1258,-454.6406 210.9124,-454.6406 210.9124,-414.4271 251.1258,-414.4271 251.1258,-454.6406"/>
<text text-anchor="middle" x="231.0191" y="-430.3339" font-family="Times,serif" font-size="14.00" fill="#000000">Q20</text>
</g>
<!-- Q21 -->
<g id="node21" class="node">
<title>Q21</title>
<polygon fill="none" stroke="#000000" points="119.3485,-410.0901 79.135,-410.0901 79.135,-369.8766 119.3485,-369.8766 119.3485,-410.0901"/>
<text text-anchor="middle" x="99.2418" y="-385.7834" font-family="Times,serif" font-size="14.00" fill="#000000">Q21</text>
</g>
<!-- Q20&#45;&gt;Q21 -->
<g id="edge24" class="edge">
<title>Q20-&gt;Q21</title>
<path fill="none" stroke="#000000" d="M210.7177,-427.6705C188.8895,-420.291 153.9685,-408.4851 129.0294,-400.0538"/>
<polygon fill="#000000" stroke="#000000" points="129.9442,-396.6685 119.35,-396.7814 127.7023,-403.2998 129.9442,-396.6685"/>
<text text-anchor="middle" x="165.9262" y="-418.0621" font-family="Times,serif" font-size="14.00" fill="#000000">=</text>
</g>
<!-- Q22 -->
<g id="node22" class="node">
<title>Q22</title>
<polygon fill="none" stroke="#000000" points="350.7553,-695.0781 310.5418,-695.0781 310.5418,-654.8646 350.7553,-654.8646 350.7553,-695.0781"/>
<text text-anchor="middle" x="330.6485" y="-670.7713" font-family="Times,serif" font-size="14.00" fill="#000000">Q22</text>
</g>
<!-- Q23 -->
<g id="node23" class="node">
<title>Q23</title>
<ellipse fill="none" stroke="#000000" cx="285.2271" cy="-802.9883" rx="27.8306" ry="18"/>
<text text-anchor="middle" x="285.2271" y="-798.7883" font-family="Times,serif" font-size="14.00" fill="#000000">Q23</text>
</g>
<!-- Q22&#45;&gt;Q23 -->
<g id="edge26" class="edge">
<title>Q22-&gt;Q23</title>
<path fill="none" stroke="#000000" d="M323.4514,-695.256C315.7468,-716.9708 303.4793,-751.5459 294.9267,-775.6506"/>
<polygon fill="#000000" stroke="#000000" points="291.5583,-774.6774 291.5129,-785.2722 298.1554,-777.0182 291.5583,-774.6774"/>
<text text-anchor="middle" x="305.2417" y="-739.6533" font-family="Times,serif" font-size="14.00" fill="#000000">=</text>
</g>
<!-- Q24 -->
<g id="node24" class="node">
<title>Q24</title>
<polygon fill="none" stroke="#000000" points="256.8476,-955.9381 216.6341,-955.9381 216.6341,-915.7246 256.8476,-915.7246 256.8476,-955.9381"/>
<text text-anchor="middle" x="236.7408" y="-931.6313" font-family="Times,serif" font-size="14.00" fill="#000000">Q24</text>
</g>
<!-- Q23&#45;&gt;Q24 -->
<g id="edge27" class="edge">
<title>Q23-&gt;Q24</title>
<path fill="none" stroke="#000000" d="M278.7885,-820.6289C270.8395,-842.4077 257.1988,-879.7805 247.6145,-906.0397"/>
<polygon fill="#000000" stroke="#000000" points="244.301,-904.91 244.1601,-915.5039 250.8767,-907.3101 244.301,-904.91"/>
<text text-anchor="middle" x="259.2542" y="-867.5343" font-family="Times,serif" font-size="14.00" fill="#000000">=</text>
</g>
<!-- Q25 -->
<g id="node25" class="node">
<title>Q25</title>
<polygon fill="none" stroke="#000000" points="534.3645,-638.4899 494.1511,-638.4899 494.1511,-598.2764 534.3645,-598.2764 534.3645,-638.4899"/>
<text text-anchor="middle" x="514.2578" y="-614.1832" font-family="Times,serif" font-size="14.00" fill="#000000">Q25</text>
</g>
<!-- Q26 -->
<g id="node26" class="node">
<title>Q26</title>
<ellipse fill="none" stroke="#000000" cx="631.9237" cy="-723.8046" rx="27.8306" ry="18"/>
<text text-anchor="middle" x="631.9237" y="-719.6046" font-family="Times,serif" font-size="14.00" fill="#000000">Q26</text>
</g>
<!-- Q25&#45;&gt;Q26 -->
<g id="edge29" class="edge">
<title>Q25-&gt;Q26</title>
<path fill="none" stroke="#000000" d="M534.4853,-636.5058C554.8506,-654.7518 586.2655,-682.8977 607.8896,-702.2716"/>
<polygon fill="#000000" stroke="#000000" points="605.5913,-704.9117 615.3748,-708.9778 610.2624,-699.6981 605.5913,-704.9117"/>
<text text-anchor="middle" x="567.2402" y="-673.5887" font-family="Times,serif" font-size="14.00" fill="#000000">=</text>
</g>
<!-- Q27 -->
<g id="node27" class="node">
<title>Q27</title>
<polygon fill="none" stroke="#000000" points="738.9525,-826.5287 698.739,-826.5287 698.739,-786.3152 738.9525,-786.3152 738.9525,-826.5287"/>
<text text-anchor="middle" x="718.8458" y="-802.222" font-family="Times,serif" font-size="14.00" fill="#000000">Q27</text>
</g>
<!-- Q26&#45;&gt;Q27 -->
<g id="edge30" class="edge">
<title>Q26-&gt;Q27</title>
<path fill="none" stroke="#000000" d="M647.8665,-738.9579C659.9416,-750.435 676.8312,-766.4881 691.1057,-780.0557"/>
<polygon fill="#000000" stroke="#000000" points="689.0602,-782.9403 698.7198,-787.2927 693.8828,-777.8665 689.0602,-782.9403"/>
<text text-anchor="middle" x="665.5388" y="-763.7068" font-family="Times,serif" font-size="14.00" fill="#000000">=</text>
</g>
<!-- Q28 -->
<g id="node28" class="node">
<title>Q28</title>
<polygon fill="none" stroke="#000000" points="581.5426,-452.5954 541.3291,-452.5954 541.3291,-412.3819 581.5426,-412.3819 581.5426,-452.5954"/>
<text text-anchor="middle" x="561.4358" y="-428.2886" font-family="Times,serif" font-size="14.00" fill="#000000">Q28</text>
</g>
<!-- Q28&#45;&gt;Q28 -->
<g id="edge32" class="edge">
<title>Q28-&gt;Q28</title>
<path fill="none" stroke="#000000" d="M581.7938,-439.1052C591.2378,-439.827 599.4891,-437.6215 599.4891,-432.4886 599.4891,-429.3608 596.4251,-427.32 591.8943,-426.3663"/>
<polygon fill="#000000" stroke="#000000" points="591.9529,-422.8651 581.7938,-425.8721 591.6108,-429.8567 591.9529,-422.8651"/>
<text text-anchor="middle" x="609.9891" y="-428.2886" font-family="Times,serif" font-size="14.00" fill="#000000">0..9</text>
</g>
<!-- Q29 -->
<g id="node29" class="node">
<title>Q29</title>
<ellipse fill="none" stroke="#000000" cx="675.6133" cy="-341.6815" rx="27.8306" ry="18"/>
<text text-anchor="middle" x="675.6133" y="-337.4815" font-family="Times,serif" font-size="14.00" fill="#000000">Q29</text>
</g>
<!-- Q28&#45;&gt;Q29 -->
<g id="edge33" class="edge">
<title>Q28-&gt;Q29</title>
<path fill="none" stroke="#000000" d="M581.5857,-416.4632C600.604,-401.3376 629.2073,-378.589 649.8703,-362.1553"/>
<polygon fill="#000000" stroke="#000000" points="652.2651,-364.7227 657.913,-355.7588 647.9078,-359.2441 652.2651,-364.7227"/>
<text text-anchor="middle" x="613.978" y="-393.5093" font-family="Times,serif" font-size="14.00" fill="#000000">.</text>
</g>
<!-- Q31 -->
<g id="node31" class="node">
<title>Q31</title>
<polygon fill="none" stroke="#000000" points="736.5552,-414.8727 696.3418,-414.8727 696.3418,-374.6592 736.5552,-374.6592 736.5552,-414.8727"/>
<text text-anchor="middle" x="716.4485" y="-390.566" font-family="Times,serif" font-size="14.00" fill="#000000">Q31</text>
</g>
<!-- Q28&#45;&gt;Q31 -->
<g id="edge35" class="edge">
<title>Q28-&gt;Q31</title>
<path fill="none" stroke="#000000" d="M581.701,-427.5571C608.3919,-421.0618 655.5452,-409.5869 686.3945,-402.0797"/>
<polygon fill="#000000" stroke="#000000" points="687.2895,-405.4641 696.1783,-399.6988 685.6343,-398.6626 687.2895,-405.4641"/>
<text text-anchor="middle" x="624.7189" y="-402.2184" font-family="Times,serif" font-size="14.00" fill="#000000">e/E</text>
</g>
<!-- Q30 -->
<g id="node30" class="node">
<title>Q30</title>
<polygon fill="none" stroke="#000000" points="790.7684,-331.9444 750.5549,-331.9444 750.5549,-291.7309 790.7684,-291.7309 790.7684,-331.9444"/>
<text text-anchor="middle" x="770.6616" y="-307.6377" font-family="Times,serif" font-size="14.00" fill="#000000">Q30</text>
</g>
<!-- Q29&#45;&gt;Q30 -->
<g id="edge34" class="edge">
<title>Q29-&gt;Q30</title>
<path fill="none" stroke="#000000" d="M700.5861,-333.8404C712.825,-329.9976 727.6615,-325.3391 740.5262,-321.2998"/>
<polygon fill="#000000" stroke="#000000" points="741.8411,-324.5555 750.3333,-318.2205 739.7441,-317.8769 741.8411,-324.5555"/>
<text text-anchor="middle" x="731.0562" y="-331.7701" font-family="Times,serif" font-size="14.00" fill="#000000">0..9</text>
</g>
<!-- Q30&#45;&gt;Q31 -->
<g id="edge40" class="edge">
<title>Q30-&gt;Q31</title>
<path fill="none" stroke="#000000" d="M757.5381,-331.9123C750.8619,-342.1248 742.6272,-354.7211 735.2871,-365.9491"/>
<polygon fill="#000000" stroke="#000000" points="732.1814,-364.3035 729.639,-374.5888 738.0405,-368.1338 732.1814,-364.3035"/>
<text text-anchor="middle" x="737.0837" y="-353.1307" font-family="Times,serif" font-size="14.00" fill="#000000">e/E</text>
</g>
<!-- Q31&#45;&gt;Q31 -->
<g id="edge36" class="edge">
<title>Q31-&gt;Q31</title>
<path fill="none" stroke="#000000" d="M736.8064,-401.3825C746.2504,-402.1043 754.5018,-399.8988 754.5018,-394.766 754.5018,-391.6382 751.4377,-389.5974 746.9069,-388.6436"/>
<polygon fill="#000000" stroke="#000000" points="746.9656,-385.1424 736.8064,-388.1494 746.6234,-392.134 746.9656,-385.1424"/>
<text text-anchor="middle" x="765.0018" y="-390.566" font-family="Times,serif" font-size="14.00" fill="#000000">0..9</text>
</g>
<!-- Q32 -->
<g id="node32" class="node">
<title>Q32</title>
<ellipse fill="none" stroke="#000000" cx="846.261" cy="-375.8012" rx="27.8306" ry="18"/>
<text text-anchor="middle" x="846.261" y="-371.6012" font-family="Times,serif" font-size="14.00" fill="#000000">Q32</text>
</g>
<!-- Q31&#45;&gt;Q32 -->
<g id="edge37" class="edge">
<title>Q31-&gt;Q32</title>
<path fill="none" stroke="#000000" d="M736.7317,-391.8027C755.9877,-388.9896 785.3996,-384.6927 808.8982,-381.2597"/>
<polygon fill="#000000" stroke="#000000" points="809.5007,-384.7089 818.8897,-379.8 808.4888,-377.7824 809.5007,-384.7089"/>
<text text-anchor="middle" x="764.592" y="-373.9312" font-family="Times,serif" font-size="14.00" fill="#000000">+/-</text>
</g>
<!-- Q33 -->
<g id="node33" class="node">
<title>Q33</title>
<polygon fill="none" stroke="#000000" points="1000.909,-368.6709 960.6955,-368.6709 960.6955,-328.4574 1000.909,-328.4574 1000.909,-368.6709"/>
<text text-anchor="middle" x="980.8023" y="-344.3642" font-family="Times,serif" font-size="14.00" fill="#000000">Q33</text>
</g>
<!-- Q32&#45;&gt;Q33 -->
<g id="edge38" class="edge">
<title>Q32-&gt;Q33</title>
<path fill="none" stroke="#000000" d="M872.842,-370.4201C895.1558,-365.9028 927.037,-359.4486 950.3695,-354.7251"/>
<polygon fill="#000000" stroke="#000000" points="951.3165,-358.1045 960.4232,-352.6898 949.9275,-351.2437 951.3165,-358.1045"/>
<text text-anchor="middle" x="901.1057" y="-366.7726" font-family="Times,serif" font-size="14.00" fill="#000000">0..9</text>
</g>
<!-- Q33&#45;&gt;Q33 -->
<g id="edge39" class="edge">
<title>Q33-&gt;Q33</title>
<path fill="none" stroke="#000000" d="M1001.1602,-355.1807C1010.6042,-355.9025 1018.8556,-353.697 1018.8556,-348.5642 1018.8556,-345.4364 1015.7915,-343.3956 1011.2607,-342.4418"/>
<polygon fill="#000000" stroke="#000000" points="1011.3193,-338.9406 1001.1602,-341.9477 1010.9772,-345.9322 1011.3193,-338.9406"/>
<text text-anchor="middle" x="1029.3556" y="-344.3642" font-family="Times,serif" font-size="14.00" fill="#000000">0..9</text>
</g>
<!-- Q34 -->
<g id="node34" class="node">
<title>Q34</title>
<ellipse fill="none" stroke="#000000" cx="442.0776" cy="-672.4526" rx="27.8306" ry="18"/>
<text text-anchor="middle" x="442.0776" y="-668.2526" font-family="Times,serif" font-size="14.00" fill="#000000">Q34</text>
</g>
<!-- Q34&#45;&gt;Q34 -->
<g id="edge42" class="edge">
<title>Q34-&gt;Q34</title>
<path fill="none" stroke="#000000" d="M467.897,-679.1433C478.6377,-679.6047 487.7424,-677.3745 487.7424,-672.4526 487.7424,-669.2226 483.8213,-667.1519 478.09,-666.2403"/>
<polygon fill="#000000" stroke="#000000" points="478.0501,-662.7346 467.897,-665.762 477.7219,-669.7269 478.0501,-662.7346"/>
<text text-anchor="middle" x="504.457" y="-668.2526" font-family="Times,serif" font-size="14.00" fill="#000000">znaky</text>
</g>
<!-- Q35 -->
<g id="node35" class="node">
<title>Q35</title>
<polygon fill="none" stroke="#000000" points="492.6281,-813.2001 452.4146,-813.2001 452.4146,-772.9866 492.6281,-772.9866 492.6281,-813.2001"/>
<text text-anchor="middle" x="472.5213" y="-788.8934" font-family="Times,serif" font-size="14.00" fill="#000000">Q35</text>
</g>
<!-- Q34&#45;&gt;Q35 -->
<g id="edge43" class="edge">
<title>Q34-&gt;Q35</title>
<path fill="none" stroke="#000000" d="M446.5697,-690.2536C451.389,-709.3513 459.1279,-740.0186 464.9025,-762.902"/>
<polygon fill="#000000" stroke="#000000" points="461.5595,-763.9591 467.4,-772.7988 468.3467,-762.2463 461.5595,-763.9591"/>
<text text-anchor="middle" x="452.8808" y="-730.7778" font-family="Times,serif" font-size="14.00" fill="#000000">"</text>
</g>
<!-- Q36 -->
<g id="node36" class="node">
<title>Q36</title>
<ellipse fill="none" stroke="#000000" cx="244.6308" cy="-614.0681" rx="27.8306" ry="18"/>
<text text-anchor="middle" x="244.6308" y="-609.8681" font-family="Times,serif" font-size="14.00" fill="#000000">Q36</text>
</g>
<!-- Q37 -->
<g id="node37" class="node">
<title>Q37</title>
<polygon fill="none" stroke="#000000" points="162.9278,-706.7678 122.7143,-706.7678 122.7143,-666.5543 162.9278,-666.5543 162.9278,-706.7678"/>
<text text-anchor="middle" x="142.8211" y="-682.4611" font-family="Times,serif" font-size="14.00" fill="#000000">Q37</text>
</g>
<!-- Q36&#45;&gt;Q37 -->
<g id="edge45" class="edge">
<title>Q36-&gt;Q37</title>
<path fill="none" stroke="#000000" d="M225.9573,-627.3828C210.6641,-638.2872 188.7777,-653.8928 171.2997,-666.3551"/>
<polygon fill="#000000" stroke="#000000" points="169.2321,-663.5307 163.1219,-672.1861 173.2961,-669.2302 169.2321,-663.5307"/>
<text text-anchor="middle" x="169.463" y="-651.0689" font-family="Times,serif" font-size="14.00" fill="#000000">pismeno/_</text>
</g>
<!-- Q37&#45;&gt;Q37 -->
<g id="edge46" class="edge">
<title>Q37-&gt;Q37</title>
<path fill="none" stroke="#000000" d="M163.179,-693.2776C172.623,-693.9994 180.8744,-691.7939 180.8744,-686.6611 180.8744,-683.5333 177.8103,-681.4925 173.2795,-680.5387"/>
<polygon fill="#000000" stroke="#000000" points="173.3381,-677.0375 163.179,-680.0446 172.996,-684.0291 173.3381,-677.0375"/>
<text text-anchor="middle" x="225.2054" y="-682.4611" font-family="Times,serif" font-size="14.00" fill="#000000">pismeno/cislo/_</text>
</g>
<!-- Q38 -->
<g id="node38" class="node">
<title>Q38</title>
<polygon fill="none" stroke="#000000" points="427.3966,-434.06 387.1831,-434.06 387.1831,-393.8465 427.3966,-393.8465 427.3966,-434.06"/>
<text text-anchor="middle" x="407.2898" y="-409.7533" font-family="Times,serif" font-size="14.00" fill="#000000">Q38</text>
</g>
<!-- Q38&#45;&gt;Q38 -->
<g id="edge48" class="edge">
<title>Q38-&gt;Q38</title>
<path fill="none" stroke="#000000" d="M427.6478,-420.5698C437.0917,-421.2916 445.3431,-419.0861 445.3431,-413.9533 445.3431,-410.8255 442.2791,-408.7847 437.7483,-407.8309"/>
<polygon fill="#000000" stroke="#000000" points="437.8069,-404.3297 427.6478,-407.3368 437.4648,-411.3213 437.8069,-404.3297"/>
<text text-anchor="middle" x="462.0577" y="-409.7533" font-family="Times,serif" font-size="14.00" fill="#000000">znaky</text>
</g>
<!-- start -->
<g id="node39" class="node">
<title>start</title>
<polygon fill="none" stroke="#000000" points="387.5185,-517.0557 348.2812,-499.0557 387.5185,-481.0557 426.7558,-499.0557 387.5185,-517.0557"/>
<polyline fill="none" stroke="#000000" points="359.1883,-504.0592 359.1883,-494.0521 "/>
<polyline fill="none" stroke="#000000" points="376.6114,-486.0592 398.4256,-486.0592 "/>
<polyline fill="none" stroke="#000000" points="415.8487,-494.0521 415.8487,-504.0592 "/>
<polyline fill="none" stroke="#000000" points="398.4256,-512.0521 376.6114,-512.0521 "/>
<text text-anchor="middle" x="387.5185" y="-494.8557" font-family="Times,serif" font-size="14.00" fill="#000000">start</text>
</g>
<!-- start&#45;&gt;Q1 -->
<g id="edge1" class="edge">
<title>start-&gt;Q1</title>
<path fill="none" stroke="#000000" d="M379.7319,-484.3801C365.3268,-457.2308 334.3164,-398.7854 315.955,-364.1793"/>
<polygon fill="#000000" stroke="#000000" points="318.9146,-362.2898 311.1358,-355.0967 312.7311,-365.5707 318.9146,-362.2898"/>
<text text-anchor="middle" x="345.8981" y="-428.4797" font-family="Times,serif" font-size="14.00" fill="#000000">/</text>
</g>
<!-- start&#45;&gt;Q7 -->
<g id="edge10" class="edge">
<title>start-&gt;Q7</title>
<path fill="none" stroke="#000000" d="M378.4909,-513.4642C366.6423,-532.3753 345.6123,-565.9402 330.7719,-589.6263"/>
<polygon fill="#000000" stroke="#000000" points="327.7627,-587.837 325.4192,-598.1694 333.6946,-591.5536 327.7627,-587.837"/>
<text text-anchor="middle" x="352.3011" y="-555.7453" font-family="Times,serif" font-size="14.00" fill="#000000">(</text>
</g>
<!-- start&#45;&gt;Q8 -->
<g id="edge11" class="edge">
<title>start-&gt;Q8</title>
<path fill="none" stroke="#000000" d="M396.0681,-484.9374C406.7948,-467.2243 425.4114,-436.4822 438.8592,-414.2754"/>
<polygon fill="#000000" stroke="#000000" points="441.903,-416.006 444.0891,-405.6391 435.9153,-412.38 441.903,-416.006"/>
<text text-anchor="middle" x="415.1334" y="-453.8064" font-family="Times,serif" font-size="14.00" fill="#000000">)</text>
</g>
<!-- start&#45;&gt;Q9 -->
<g id="edge12" class="edge">
<title>start-&gt;Q9</title>
<path fill="none" stroke="#000000" d="M403.9788,-488.3961C419.9948,-478.0242 444.5959,-462.0927 463.3877,-449.9232"/>
<polygon fill="#000000" stroke="#000000" points="465.3305,-452.8349 471.8217,-444.4614 461.5255,-446.9594 465.3305,-452.8349"/>
<text text-anchor="middle" x="430.3239" y="-473.3596" font-family="Times,serif" font-size="14.00" fill="#000000">{</text>
</g>
<!-- start&#45;&gt;Q10 -->
<g id="edge13" class="edge">
<title>start-&gt;Q10</title>
<path fill="none" stroke="#000000" d="M425.7986,-498.5502C445.6409,-498.2882 469.5411,-497.9725 488.1234,-497.7272"/>
<polygon fill="#000000" stroke="#000000" points="488.4261,-501.2236 498.379,-497.5917 488.3336,-494.2242 488.4261,-501.2236"/>
<text text-anchor="middle" x="453.6017" y="-502.3387" font-family="Times,serif" font-size="14.00" fill="#000000">}</text>
</g>
<!-- start&#45;&gt;Q11 -->
<g id="edge14" class="edge">
<title>start-&gt;Q11</title>
<path fill="none" stroke="#000000" d="M408.2374,-507.6727C428.7009,-516.1835 460.2027,-529.2852 483.3187,-538.8991"/>
<polygon fill="#000000" stroke="#000000" points="482.0781,-542.1738 492.6555,-542.7823 484.7663,-535.7105 482.0781,-542.1738"/>
<text text-anchor="middle" x="441.8307" y="-527.4859" font-family="Times,serif" font-size="14.00" fill="#000000">+</text>
</g>
<!-- start&#45;&gt;Q12 -->
<g id="edge15" class="edge">
<title>start-&gt;Q12</title>
<path fill="none" stroke="#000000" d="M356.1925,-495.4043C339.0548,-493.4068 317.9199,-490.9434 300.9426,-488.9645"/>
<polygon fill="#000000" stroke="#000000" points="301.3199,-485.4849 290.9819,-487.8035 300.5094,-492.4378 301.3199,-485.4849"/>
<text text-anchor="middle" x="326.2372" y="-496.3844" font-family="Times,serif" font-size="14.00" fill="#000000">-</text>
</g>
<!-- start&#45;&gt;Q13 -->
<g id="edge16" class="edge">
<title>start-&gt;Q13</title>
<path fill="none" stroke="#000000" d="M386.1717,-516.4537C384.8573,-533.4336 382.8302,-559.6202 381.2496,-580.0377"/>
<polygon fill="#000000" stroke="#000000" points="377.7523,-579.8693 380.47,-590.1096 384.7314,-580.4096 377.7523,-579.8693"/>
<text text-anchor="middle" x="380.2107" y="-552.4457" font-family="Times,serif" font-size="14.00" fill="#000000">*</text>
</g>
<!-- start&#45;&gt;Q14 -->
<g id="edge17" class="edge">
<title>start-&gt;Q14</title>
<path fill="none" stroke="#000000" d="M386.567,-481.2607C385.396,-459.3595 383.3891,-421.8257 381.9734,-395.3497"/>
<polygon fill="#000000" stroke="#000000" points="385.4547,-394.9046 381.4257,-385.1058 378.4647,-395.2784 385.4547,-394.9046"/>
<text text-anchor="middle" x="382.5202" y="-442.5052" font-family="Times,serif" font-size="14.00" fill="#000000">.</text>
</g>
<!-- start&#45;&gt;Q15 -->
<g id="edge18" class="edge">
<title>start-&gt;Q15</title>
<path fill="none" stroke="#000000" d="M368.0037,-508.4369C351.8603,-516.1975 328.6869,-527.3377 310.3323,-536.1612"/>
<polygon fill="#000000" stroke="#000000" points="308.7322,-533.0469 301.236,-540.5341 311.7651,-539.3558 308.7322,-533.0469"/>
<text text-anchor="middle" x="337.418" y="-526.4991" font-family="Times,serif" font-size="14.00" fill="#000000">,</text>
</g>
<!-- start&#45;&gt;Q16 -->
<g id="edge19" class="edge">
<title>start-&gt;Q16</title>
<path fill="none" stroke="#000000" d="M376.6098,-485.5098C364.5355,-470.5168 344.739,-445.9347 329.2776,-426.7356"/>
<polygon fill="#000000" stroke="#000000" points="331.95,-424.4737 322.9518,-418.8806 326.498,-428.8643 331.95,-424.4737"/>
<text text-anchor="middle" x="350.9984" y="-460.3227" font-family="Times,serif" font-size="14.00" fill="#000000">:</text>
</g>
<!-- start&#45;&gt;Q17 -->
<g id="edge20" class="edge">
<title>start-&gt;Q17</title>
<path fill="none" stroke="#000000" d="M397.2523,-512.9313C409.0386,-529.7329 429.192,-558.4617 444.3471,-580.0656"/>
<polygon fill="#000000" stroke="#000000" points="441.6835,-582.363 450.2917,-588.5396 447.4141,-578.343 441.6835,-582.363"/>
<text text-anchor="middle" x="418.8544" y="-550.6985" font-family="Times,serif" font-size="14.00" fill="#000000">;</text>
</g>
<!-- start&#45;&gt;Q18 -->
<g id="edge21" class="edge">
<title>start-&gt;Q18</title>
<path fill="none" stroke="#000000" d="M355.5039,-502.4653C322.9637,-505.9309 272.9287,-511.2598 241.0237,-514.6577"/>
<polygon fill="#000000" stroke="#000000" points="240.5232,-511.1911 230.9502,-515.7306 241.2646,-518.1518 240.5232,-511.1911"/>
<text text-anchor="middle" x="294.3165" y="-512.7615" font-family="Times,serif" font-size="14.00" fill="#000000">&lt;</text>
</g>
<!-- start&#45;&gt;Q20 -->
<g id="edge23" class="edge">
<title>start-&gt;Q20</title>
<path fill="none" stroke="#000000" d="M366.7366,-490.4877C339.577,-479.2903 291.8318,-459.6058 260.8223,-446.8212"/>
<polygon fill="#000000" stroke="#000000" points="261.9688,-443.5081 251.3896,-442.9323 259.3006,-449.9797 261.9688,-443.5081"/>
<text text-anchor="middle" x="309.8321" y="-472.8544" font-family="Times,serif" font-size="14.00" fill="#000000">&gt;</text>
</g>
<!-- start&#45;&gt;Q22 -->
<g id="edge25" class="edge">
<title>start-&gt;Q22</title>
<path fill="none" stroke="#000000" d="M382.3714,-514.9773C372.8993,-544.2771 352.5657,-607.1749 340.4053,-644.7907"/>
<polygon fill="#000000" stroke="#000000" points="336.9538,-644.0891 337.208,-654.6809 343.6144,-646.2424 336.9538,-644.0891"/>
<text text-anchor="middle" x="365.3356" y="-567.284" font-family="Times,serif" font-size="14.00" fill="#000000">=</text>
</g>
<!-- start&#45;&gt;Q25 -->
<g id="edge28" class="edge">
<title>start-&gt;Q25</title>
<path fill="none" stroke="#000000" d="M400.6045,-511.3764C420.7516,-530.3453 459.8243,-567.1329 486.4734,-592.2236"/>
<polygon fill="#000000" stroke="#000000" points="484.2918,-594.9768 493.9718,-599.2835 489.0903,-589.8802 484.2918,-594.9768"/>
<text text-anchor="middle" x="441.2086" y="-556" font-family="Times,serif" font-size="14.00" fill="#000000">!</text>
</g>
<!-- start&#45;&gt;Q28 -->
<g id="edge31" class="edge">
<title>start-&gt;Q28</title>
<path fill="none" stroke="#000000" d="M409.1936,-490.7595C440.1067,-478.9275 496.9588,-457.1673 531.7605,-443.8469"/>
<polygon fill="#000000" stroke="#000000" points="533.2877,-447.01 541.3759,-440.1666 530.7854,-440.4725 533.2877,-447.01"/>
<text text-anchor="middle" x="459.9771" y="-471.5032" font-family="Times,serif" font-size="14.00" fill="#000000">0..9</text>
</g>
<!-- start&#45;&gt;Q34 -->
<g id="edge41" class="edge">
<title>start-&gt;Q34</title>
<path fill="none" stroke="#000000" d="M392.5535,-515.0576C401.8852,-544.7153 421.9625,-608.5238 433.4826,-645.1363"/>
<polygon fill="#000000" stroke="#000000" points="430.1487,-646.2024 436.4889,-654.6908 436.826,-644.1013 430.1487,-646.2024"/>
<text text-anchor="middle" x="410.1627" y="-584.297" font-family="Times,serif" font-size="14.00" fill="#000000">"</text>
</g>
<!-- start&#45;&gt;Q36 -->
<g id="edge44" class="edge">
<title>start-&gt;Q36</title>
<path fill="none" stroke="#000000" d="M373.0313,-510.7166C348.9062,-530.1352 300.1929,-569.3454 270.1911,-593.4942"/>
<polygon fill="#000000" stroke="#000000" points="267.8567,-590.8802 262.2613,-599.8771 272.2459,-596.3332 267.8567,-590.8802"/>
<text text-anchor="middle" x="318.1112" y="-556.3054" font-family="Times,serif" font-size="14.00" fill="#000000">$</text>
</g>
<!-- start&#45;&gt;Q38 -->
<g id="edge47" class="edge">
<title>start-&gt;Q38</title>
<path fill="none" stroke="#000000" d="M391.3306,-482.6471C393.8629,-471.747 397.2634,-457.1103 400.2748,-444.1485"/>
<polygon fill="#000000" stroke="#000000" points="403.7285,-444.7484 402.5824,-434.2158 396.9101,-443.1643 403.7285,-444.7484"/>
<text text-anchor="middle" x="367.0299" y="-467.5978" font-family="Times,serif" font-size="14.00" fill="#000000">?/pismeno</text>
</g>
</g>
</svg>